<svg xmlns="http://www.w3.org/2000/svg" xmlns:xlink="http://www.w3.org/1999/xlink" width="2000" zoomAndPan="magnify" viewBox="0 0 1500 1499.999933" height="2000" preserveAspectRatio="xMidYMid meet" version="1.0"><defs><clipPath id="6aed5df8d8"><path d="M 52.5 0 L 1447.5 0 L 1447.5 1500 L 52.5 1500 Z M 52.5 0 " clip-rule="nonzero"/></clipPath><clipPath id="4cc26da57f"><rect x="0" width="1396" y="0" height="1500"/></clipPath></defs><g clip-path="url(#6aed5df8d8)"><g transform="matrix(1, 0, 0, 1, 52, 0.000000000000112861)"><g clip-path="url(#4cc26da57f)"><path fill="#1f48ff" d="M 343.0625 490.953125 C 349.457031 510.875 352.046875 527.464844 350.9375 540.730469 C 347.449219 581.257812 330.328125 615.449219 299.628906 643.402344 C 296.40625 646.308594 294.765625 650.585938 295.242188 654.921875 C 298.042969 681.765625 300.210938 701.210938 301.742188 713.3125 C 308.347656 765.730469 327.316406 812.546875 358.652344 853.765625 C 361.769531 857.886719 364.359375 862.378906 366.367188 867.132812 C 388.507812 919.925781 402.457031 957.332031 408.21875 979.316406 C 416.726562 1011.707031 421.535156 1034.640625 422.539062 1048.0625 C 423.910156 1066.082031 424.386719 1085.6875 423.964844 1106.875 C 423.804688 1115.648438 424.96875 1124.367188 427.347656 1132.769531 C 443.832031 1190.472656 441.773438 1251.820312 431.414062 1310.582031 C 428.773438 1325.691406 422.0625 1341.757812 411.070312 1357.027344 C 394.425781 1380.226562 381.742188 1406.328125 373.023438 1435.339844 C 372.390625 1437.398438 373.132812 1439.671875 374.820312 1441.046875 C 386.976562 1450.929688 441.878906 1458.855469 450.597656 1439.777344 C 450.808594 1439.300781 458.046875 1422.394531 472.367188 1388.996094 C 473.320312 1386.671875 478.972656 1379.378906 489.328125 1367.066406 C 492.871094 1362.839844 495.882812 1353.277344 498.261719 1338.425781 C 504.972656 1295.890625 507.242188 1252.402344 504.972656 1207.855469 C 504.230469 1193.429688 503.28125 1182.492188 502.117188 1175.042969 C 496.886719 1141.0625 506.714844 1105.449219 501.167969 1066.132812 C 493.398438 1011.230469 485.101562 964.941406 476.382812 927.265625 C 474.535156 919.183594 472.261719 913.269531 469.671875 909.511719 C 468.351562 907.609375 466.503906 906.234375 464.335938 905.496094 C 427.03125 893.132812 402.351562 888.003906 379.417969 866.921875 C 378.996094 866.550781 378.945312 865.917969 379.261719 865.496094 C 379.523438 865.019531 380.105469 864.859375 380.632812 865.070312 C 408.429688 877.59375 438.019531 887.742188 469.355469 895.613281 C 474.375 896.882812 478.339844 900.792969 479.660156 905.761719 C 492.234375 952.417969 501.535156 1001.457031 507.613281 1052.871094 C 508.828125 1062.804688 509.621094 1072.210938 509.992188 1081.035156 C 510.996094 1104.074219 506.503906 1127.746094 506.027344 1149.78125 C 505.871094 1158.34375 507.71875 1170.339844 511.574219 1185.714844 C 515.117188 1199.824219 516.332031 1218.054688 515.222656 1240.511719 C 513.371094 1275.96875 510.679688 1315.070312 502.066406 1353.539062 C 500.269531 1361.519531 495.355469 1371.242188 487.375 1382.707031 C 467.769531 1410.769531 458.574219 1445.378906 442.988281 1476.609375 C 440.925781 1480.675781 442.40625 1485.644531 446.371094 1487.917969 C 465.550781 1499.066406 495.882812 1498.960938 517.125 1497.21875 C 569.808594 1492.988281 559.398438 1460.96875 553.058594 1422.550781 C 551.894531 1415.628906 554.273438 1408.601562 559.398438 1403.792969 C 570.863281 1393.011719 584.550781 1382.339844 583.175781 1366.011719 C 579.320312 1320.726562 577.996094 1280.195312 579.320312 1244.421875 C 580.429688 1214.566406 584.339844 1189.042969 591.101562 1167.90625 C 591.683594 1165.953125 592.105469 1163.996094 592.265625 1162.042969 L 593.691406 1145.503906 C 593.746094 1144.394531 593.746094 1143.285156 593.585938 1142.175781 C 589.042969 1110.628906 590.890625 1073.425781 599.082031 1030.574219 C 606.164062 993.6875 614.195312 949.460938 623.175781 897.832031 C 626.824219 877.121094 634.484375 852.390625 641.9375 836.960938 C 642.09375 836.695312 642.253906 836.484375 642.410156 836.378906 C 642.78125 836.21875 643.203125 836.644531 643.097656 837.117188 L 631.421875 887.320312 C 630.257812 892.339844 633.375 897.359375 638.394531 898.519531 C 711.210938 915.429688 774.832031 913.957031 852.40625 901.636719 C 907.359375 892.917969 953.648438 873.683594 991.273438 843.933594 C 1010.929688 828.347656 1028.949219 806.46875 1046.914062 790.089844 C 1049.238281 787.976562 1050.71875 785.070312 1050.929688 781.953125 L 1057.851562 701.316406 C 1057.90625 700.574219 1058.222656 699.890625 1058.644531 699.359375 L 1060.867188 696.613281 C 1061.394531 696.664062 1061.761719 697.089844 1061.816406 697.617188 C 1062.820312 723.507812 1058.59375 751.726562 1061.183594 776.457031 C 1063.664062 800.339844 1068.527344 823.433594 1075.714844 845.730469 C 1087.234375 881.664062 1107.207031 918.070312 1120.628906 953.847656 C 1137.222656 998.128906 1152.175781 1044.839844 1165.542969 1093.929688 C 1178.648438 1142.121094 1178.332031 1193.113281 1176.484375 1244.421875 C 1174.738281 1291.503906 1169.667969 1336.84375 1148.953125 1369.445312 C 1134.105469 1392.855469 1120.628906 1420.28125 1112.753906 1444.957031 C 1111.328125 1449.5 1113.972656 1454.308594 1118.566406 1455.472656 C 1143.507812 1461.867188 1169.085938 1462.976562 1195.242188 1458.800781 C 1211.042969 1456.316406 1233.183594 1443.847656 1229.800781 1424.71875 C 1226.894531 1408.285156 1225.308594 1398.613281 1225.097656 1395.8125 C 1224.992188 1394.492188 1224.992188 1393.171875 1225.148438 1391.851562 C 1226.789062 1376.578125 1232.546875 1364.796875 1242.429688 1356.5 C 1257.4375 1343.765625 1256.695312 1325.375 1254.53125 1305.296875 C 1244.964844 1215.359375 1247.976562 1127.429688 1263.617188 1041.511719 C 1264.675781 1035.644531 1263.195312 1029.515625 1259.550781 1024.757812 C 1246.5 1007.691406 1237.9375 987.929688 1233.761719 965.367188 C 1223.777344 911.3125 1224.886719 857.25 1237.144531 803.195312 C 1246.550781 761.820312 1255.375 726.046875 1263.566406 695.980469 C 1263.722656 695.503906 1264.199219 695.1875 1264.675781 695.238281 C 1265.203125 695.292969 1265.574219 695.714844 1265.574219 696.242188 C 1265.46875 720.761719 1266.050781 741.421875 1267.371094 758.277344 C 1271.96875 816.617188 1276.140625 874.53125 1280 931.96875 C 1283.539062 984.8125 1300.660156 1048.222656 1342.828125 1085.050781 C 1343.832031 1085.898438 1345.363281 1085.949219 1346.421875 1085.15625 L 1347.476562 1084.3125 C 1348.007812 1083.890625 1348.113281 1083.042969 1347.636719 1082.515625 C 1337.96875 1070.941406 1330.675781 1057.203125 1325.707031 1041.191406 C 1325.601562 1040.824219 1325.8125 1040.453125 1326.128906 1040.347656 L 1326.183594 1040.296875 C 1326.660156 1040.136719 1327.132812 1040.296875 1327.398438 1040.769531 C 1342.035156 1069.148438 1363.488281 1090.335938 1391.761719 1104.339844 C 1393.609375 1105.238281 1395.511719 1103.28125 1394.613281 1101.433594 C 1380.503906 1073.164062 1370.886719 1043.414062 1365.761719 1012.183594 C 1365.65625 1011.390625 1366.078125 1010.703125 1366.820312 1010.4375 C 1367.609375 1010.226562 1368.402344 1010.597656 1368.722656 1011.285156 L 1382.195312 1039.714844 C 1382.566406 1040.558594 1383.515625 1040.929688 1384.414062 1040.664062 C 1385.261719 1040.402344 1385.789062 1039.503906 1385.628906 1038.605469 C 1380.925781 1013.714844 1376.277344 994.535156 1371.734375 981.164062 C 1357.625 939.578125 1328.5625 898.945312 1314.347656 857.570312 C 1292.152344 792.996094 1295.164062 719.96875 1297.597656 648.683594 C 1299.710938 587.335938 1293.210938 530.53125 1262.773438 478.535156 C 1225.679688 415.125 1173.789062 370.105469 1107.050781 343.523438 C 1059.96875 324.765625 1011.195312 324.871094 960.730469 343.789062 C 906.460938 364.132812 851.71875 379.667969 796.550781 390.34375 C 718.027344 405.507812 635.753906 401.386719 549.78125 377.871094 C 544.917969 376.550781 540.640625 374.753906 536.992188 372.535156 C 531.179688 368.941406 526.792969 368.253906 523.835938 370.421875 C 522.25 371.582031 519.976562 370.367188 520.082031 368.414062 L 520.507812 359.429688 C 520.613281 357.261719 518.445312 355.679688 516.382812 356.363281 C 512.949219 357.527344 510.519531 360.382812 509.039062 364.871094 C 508.828125 365.453125 508.351562 365.929688 507.769531 366.089844 C 507.085938 366.246094 506.398438 366.140625 505.761719 365.664062 C 505.65625 365.613281 505.605469 365.453125 505.605469 365.347656 L 504.917969 348.070312 C 504.863281 346.429688 502.855469 345.585938 501.640625 346.695312 C 498.523438 349.496094 495.828125 352.984375 493.558594 357.210938 C 492.394531 359.324219 489.222656 358.425781 489.328125 356.046875 L 490.070312 340.40625 C 490.226562 337.710938 486.476562 336.8125 485.367188 339.296875 L 479.183594 352.929688 C 478.972656 353.40625 478.496094 353.617188 477.96875 353.511719 C 477.492188 353.40625 477.175781 352.929688 477.230469 352.453125 L 478.8125 333.855469 C 479.027344 331.425781 477.386719 329.203125 475.007812 328.675781 C 472.578125 328.148438 470.199219 329.46875 469.355469 331.792969 C 468.140625 335.015625 466.871094 337.023438 465.550781 337.816406 C 464.175781 338.609375 462.433594 337.554688 462.539062 335.96875 L 463.121094 322.96875 C 463.277344 319.269531 459.050781 317.15625 456.199219 319.480469 C 453.1875 321.964844 451.179688 323.601562 450.175781 324.34375 C 448.695312 325.453125 446.582031 324.34375 446.6875 322.492188 L 447.269531 309.917969 C 447.375 307.488281 444.574219 306.058594 442.671875 307.539062 L 434.480469 313.933594 C 433.105469 314.988281 431.152344 313.933594 431.257812 312.242188 L 431.785156 300.722656 C 431.890625 298.769531 430.148438 297.183594 428.191406 297.550781 C 424.652344 298.238281 422.167969 299.824219 420.742188 302.359375 C 420.105469 303.46875 418.523438 303.46875 417.941406 302.308594 C 417.09375 300.5625 416.25 297.65625 415.351562 293.589844 C 414.769531 291 413.871094 289.835938 412.710938 290.101562 C 411.492188 290.367188 410.015625 291.210938 408.269531 292.636719 C 406.15625 294.382812 402.988281 292.796875 403.09375 290.050781 L 403.410156 283.707031 C 403.515625 281.382812 400.871094 280.007812 399.023438 281.4375 L 391.679688 287.089844 C 390.144531 288.304688 387.875 287.144531 387.980469 285.1875 L 388.191406 280.800781 C 388.191406 278.316406 385.601562 276.679688 383.328125 277.683594 C 381.796875 278.371094 380.792969 278.847656 380.265625 279.109375 C 378.785156 279.902344 377.042969 278.792969 377.09375 277.101562 L 377.410156 270.074219 C 377.570312 266.90625 373.921875 265 371.441406 266.957031 L 367.582031 269.96875 C 365.628906 271.5 362.773438 270.128906 362.722656 267.695312 C 362.667969 266.007812 362.191406 264.683594 361.347656 263.785156 C 360.765625 263.207031 359.761719 262.941406 358.28125 262.992188 C 356.910156 263.046875 356.0625 264.105469 355.691406 266.058594 C 355.21875 268.542969 354.003906 268.859375 352.046875 268.066406 C 351.519531 267.800781 351.203125 267.222656 351.042969 266.269531 C 350.777344 263.785156 350.09375 261.832031 349.035156 260.300781 C 347.078125 257.5 342.640625 259.1875 343.117188 262.570312 C 343.117188 262.78125 343.644531 263.785156 344.703125 265.582031 C 345.335938 266.585938 345.070312 267.910156 344.121094 268.648438 L 342.90625 269.597656 C 341.847656 270.445312 340.367188 269.386719 340.792969 268.121094 C 340.949219 267.539062 341.109375 267.0625 341.214844 266.691406 C 341.796875 264.472656 341.480469 262.097656 340.261719 260.085938 C 338.148438 256.652344 337.570312 252.953125 338.46875 248.992188 C 338.730469 247.882812 337.9375 246.773438 336.777344 246.71875 L 334.503906 246.613281 C 333.976562 246.558594 333.5 246.878906 333.289062 247.351562 L 324.675781 265.898438 C 324.464844 266.375 323.882812 266.535156 323.460938 266.21875 C 323.195312 266.058594 323.144531 265.792969 323.25 265.53125 C 325.46875 260.828125 326.3125 255.4375 325.785156 249.414062 C 325.625 247.722656 323.617188 247.035156 322.457031 248.25 C 315.535156 255.753906 312.945312 261.199219 309.296875 272.503906 C 309.035156 273.351562 308.03125 273.828125 307.183594 273.457031 L 307.132812 273.457031 C 306.707031 273.296875 306.496094 272.875 306.601562 272.453125 C 312.363281 252.585938 317.011719 237.523438 320.605469 227.273438 C 344.859375 158.101562 339.734375 86.132812 303.433594 22.988281 C 298.203125 13.898438 291.808594 7.398438 284.144531 3.488281 C 279.496094 1.164062 273.894531 2.167969 270.722656 6.023438 C 265.808594 11.890625 262.535156 18.757812 260.789062 26.582031 C 257.25 42.589844 252.230469 61.773438 245.625 84.125 C 231.9375 130.730469 227.550781 178.816406 232.570312 228.4375 C 232.730469 229.808594 231.25 230.8125 229.984375 230.125 C 222.425781 226.003906 217.355469 216.597656 208.160156 213.957031 C 201.554688 212.109375 197.90625 211.15625 197.226562 211.210938 C 195.429688 211.367188 193.839844 212.265625 192.835938 213.691406 C 188.027344 220.5625 187.921875 227.695312 192.519531 235.144531 C 193.421875 236.679688 192.886719 238.632812 191.355469 239.480469 L 191.25 239.53125 C 190.144531 240.167969 188.765625 239.796875 188.136719 238.738281 C 181.949219 228.648438 175.609375 217.023438 169.109375 203.96875 C 164.566406 194.773438 157.640625 183.835938 148.289062 171.15625 C 110.71875 120.164062 86.519531 83.4375 61.472656 31.496094 C 58.140625 24.519531 54.496094 19.289062 50.585938 15.746094 C 44.929688 10.675781 36.054688 12.050781 32.25 18.652344 C 0.542969 73.34375 26.277344 187.378906 65.75 236.203125 C 78.644531 252.109375 91.433594 260.984375 112.355469 277.84375 C 120.390625 284.289062 121.761719 292.003906 116.53125 300.933594 C 104.167969 321.964844 90.691406 344.582031 76.054688 368.835938 C 65.117188 386.960938 58.351562 405.347656 55.710938 423.949219 C 53.492188 440.066406 72.832031 459.617188 78.75 471.664062 C 79.964844 474.097656 80.441406 476.84375 80.175781 479.539062 C 78.484375 496.394531 77.535156 521.652344 77.324219 555.417969 C 77.058594 598.0625 71.511719 637.324219 60.148438 676.214844 C 52.328125 703.164062 48.894531 720.339844 49.792969 727.789062 C 53.4375 756.535156 67.496094 784.804688 86.359375 802.773438 C 121.183594 835.957031 183.324219 820.789062 203.933594 776.457031 C 217.355469 747.5 217.195312 722.242188 241.976562 695.820312 C 266.550781 669.664062 276.167969 657.984375 297.355469 637.273438 C 338.835938 596.742188 346.339844 549.027344 342.21875 491.113281 C 342.21875 490.898438 342.378906 490.6875 342.589844 490.636719 C 342.800781 490.636719 343.011719 490.742188 343.0625 490.953125 Z M 1048.5 808.054688 C 1048.023438 806.578125 1046.070312 806.207031 1045.066406 807.421875 C 1014.257812 843.40625 978.113281 870.199219 936.582031 887.6875 C 934.835938 888.429688 933.832031 890.332031 934.257812 892.179688 C 943.34375 930.703125 955.761719 971.546875 971.457031 1014.824219 C 989.6875 1065.128906 992.648438 1113.535156 980.335938 1160.085938 C 967.386719 1208.753906 939.59375 1268.253906 914.175781 1325.007812 C 911.375 1331.292969 906.621094 1337.105469 900.015625 1342.550781 C 884.109375 1355.546875 875.339844 1364.585938 865.984375 1385.140625 C 860.914062 1396.34375 855.679688 1406.222656 850.34375 1414.730469 C 848.335938 1418.007812 850.027344 1422.339844 853.726562 1423.34375 C 880.464844 1430.742188 937.902344 1437.769531 956.34375 1415.207031 C 962.261719 1407.96875 959.832031 1390.792969 960.890625 1379.644531 C 961.628906 1372.140625 965.960938 1365.429688 972.566406 1361.730469 C 990.003906 1351.953125 1001.789062 1347.621094 1006.386719 1326.90625 C 1025.039062 1243.472656 1058.59375 1158.976562 1093.152344 1078.078125 C 1097.273438 1068.511719 1095.6875 1056.992188 1092.042969 1046.53125 C 1077.617188 1005.261719 1069.214844 974.347656 1066.785156 953.792969 C 1065.726562 944.914062 1065.144531 913.957031 1065.039062 860.898438 C 1064.988281 858.785156 1064.667969 856.671875 1063.984375 854.664062 Z M 1048.5 808.054688 " fill-opacity="1" fill-rule="nonzero"/></g></g></g></svg>