<svg xmlns="http://www.w3.org/2000/svg" xmlns:xlink="http://www.w3.org/1999/xlink" width="2000" zoomAndPan="magnify" viewBox="0 0 1500 1499.999933" height="2000" preserveAspectRatio="xMidYMid meet" version="1.0"><defs><clipPath id="243b28b3ea"><path d="M 303.4375 0 L 1196.6875 0 L 1196.6875 1500 L 303.4375 1500 Z M 303.4375 0 " clip-rule="nonzero"/></clipPath><clipPath id="526aa274b6"><rect x="0" width="894" y="0" height="1500"/></clipPath></defs><g clip-path="url(#243b28b3ea)"><g transform="matrix(1, 0, 0, 1, 303, 0.000000000000112861)"><g clip-path="url(#526aa274b6)"><path fill="#1f48ff" d="M 144.800781 224.53125 C 150.691406 200.003906 157.121094 165.394531 141.316406 152.753906 C 137.707031 149.867188 137.535156 150.753906 108.011719 142.640625 C 19.25 118.25 40.816406 80.199219 22.347656 53.964844 L 22.347656 49.140625 C 13.8125 28.414062 13.617188 28.628906 13.144531 26.753906 C 9.726562 13.660156 79.046875 0.109375 108.59375 29.800781 C 150.714844 72.121094 158.5625 66.898438 203.757812 47.210938 C 246.484375 28.582031 257.726562 43.535156 296 37.8125 C 370.140625 26.730469 367.238281 45.714844 404.84375 76.832031 C 432.730469 99.917969 534.585938 6.984375 588.148438 65.570312 C 612.488281 92.199219 543.980469 147.074219 519.535156 156.570312 C 473.175781 174.558594 433.097656 163.148438 430.496094 162.863281 C 419.316406 230.742188 410.648438 232.078125 423.355469 254.488281 C 441.761719 286.949219 429.183594 290.128906 437.632812 326.578125 C 441.675781 344.011719 420.863281 351.355469 415.1875 358.910156 C 398.027344 381.738281 366.679688 377.261719 360.3125 377.734375 C 549.292969 396.519531 607.863281 340.582031 674.648438 448.878906 C 682.28125 461.261719 707.78125 483.492188 721.5 500.125 C 776.265625 566.464844 761.300781 718.371094 781.125 863.453125 C 802.992188 1023.476562 893.558594 1038.410156 802.390625 1134.574219 C 784.867188 1012.996094 759.558594 1016.890625 762.03125 893.78125 C 727.15625 1012.976562 758.957031 1017.496094 731.457031 1138.878906 C 684.691406 1345.242188 780.242188 1456.144531 659.683594 1441.121094 C 607.929688 1434.671875 652.652344 1406.972656 647.40625 1317.265625 C 646.632812 1304.183594 685.097656 1255.960938 668.628906 1160.828125 C 655.8125 1086.824219 638.804688 1067.3125 634.460938 895.785156 C 591.351562 948.890625 570.085938 947.613281 589.566406 1013.8125 C 615.089844 1100.59375 572.019531 1120.882812 557.378906 1259.949219 C 548.453125 1344.78125 564.195312 1361.019531 541.121094 1366.246094 C 525.039062 1369.886719 530.824219 1410.890625 522.050781 1422.3125 C 502.675781 1447.574219 430.582031 1450.515625 426.796875 1441.222656 C 419.507812 1423.351562 467.414062 1381.148438 468.058594 1344.089844 C 468.875 1297.050781 501.472656 1183.453125 484.402344 1118.402344 C 463.972656 1040.628906 459.308594 1042.347656 450.191406 962.441406 C 355.734375 1079.050781 411.488281 1100.925781 390.761719 1179.410156 C 360.527344 1293.894531 390.953125 1295.269531 387.75 1413.523438 C 387.535156 1421.074219 417.359375 1490.414062 333.953125 1494.839844 C 238.742188 1499.894531 302.753906 1443.15625 301.550781 1344.34375 C 300.988281 1298.300781 340.101562 1297.988281 308.988281 1212.175781 C 245.449219 1036.847656 358.269531 998.078125 322.210938 953.519531 C 321.503906 952.65625 209.285156 958.667969 204.898438 964.726562 C 176.496094 1003.949219 227.949219 1084.074219 183.914062 1167.730469 C 163.570312 1206.355469 171.570312 1386.585938 169.292969 1390.8125 C 139.210938 1446.464844 170.066406 1498.082031 69.929688 1489.800781 C 0.4375 1484.046875 71.308594 1436.828125 80.273438 1364.304688 C 93.710938 1255.449219 109.710938 1256.714844 99.992188 1147.601562 C 79.285156 914.769531 62.535156 918.09375 48.796875 881.550781 C 29.292969 829.761719 41.914062 795.035156 33.875 763.570312 C 14.910156 689.371094 1.597656 658.304688 26.347656 571.242188 C 36.21875 536.519531 33.398438 474.648438 120.480469 341.058594 C 125.664062 333.082031 119.171875 331.296875 144.800781 224.53125 Z M 144.800781 224.53125 " fill-opacity="1" fill-rule="evenodd"/></g></g></g></svg>